<svg xmlns="http://www.w3.org/2000/svg" width="21.458" height="21.458" viewBox="0 0 21.458 21.458">
  <path id="Icon_akar-instagram-fill" data-name="Icon akar-instagram-fill" d="M7.806,1.564C8.95,1.512,9.314,1.5,12.229,1.5s3.279.013,4.422.064a7.9,7.9,0,0,1,2.606.5A5.492,5.492,0,0,1,22.394,5.2a7.891,7.891,0,0,1,.5,2.6c.053,1.146.064,1.511.064,4.424s-.013,3.279-.064,4.423a7.865,7.865,0,0,1-.5,2.6,5.477,5.477,0,0,1-3.137,3.138,7.891,7.891,0,0,1-2.6.5c-1.145.053-1.51.064-4.424.064s-3.279-.013-4.423-.064a7.865,7.865,0,0,1-2.6-.5,5.483,5.483,0,0,1-3.139-3.137,7.919,7.919,0,0,1-.5-2.6c-.053-1.146-.064-1.511-.064-4.424s.013-3.279.064-4.422a7.9,7.9,0,0,1,.5-2.606A5.263,5.263,0,0,1,3.3,3.3,5.259,5.259,0,0,1,5.2,2.063a7.919,7.919,0,0,1,2.6-.5ZM16.564,3.5c-1.131-.052-1.471-.062-4.335-.062s-3.2.011-4.335.062a5.93,5.93,0,0,0-1.993.37A3.543,3.543,0,0,0,3.865,5.9,5.93,5.93,0,0,0,3.5,7.893c-.052,1.131-.062,1.471-.062,4.335s.011,3.2.062,4.335a5.93,5.93,0,0,0,.37,1.993A3.543,3.543,0,0,0,5.9,20.592a5.93,5.93,0,0,0,1.993.37c1.131.052,1.47.062,4.335.062s3.2-.011,4.335-.062a5.93,5.93,0,0,0,1.993-.37,3.543,3.543,0,0,0,2.036-2.036,5.93,5.93,0,0,0,.37-1.993c.052-1.131.062-1.471.062-4.335s-.011-3.2-.062-4.335a5.93,5.93,0,0,0-.37-1.993,3.543,3.543,0,0,0-2.036-2.036,5.93,5.93,0,0,0-1.993-.37ZM10.858,15.536A3.58,3.58,0,1,0,8.65,12.229a3.579,3.579,0,0,0,2.208,3.307ZM8.329,8.329a5.515,5.515,0,1,1,0,7.8,5.515,5.515,0,0,1,0-7.8Zm10.637-.794a1.3,1.3,0,1,0-1.817-.026A1.3,1.3,0,0,0,18.966,7.535Z" transform="translate(-1.5 -1.5)" fill="#fcfbf9"/>
</svg>
