<svg xmlns="http://www.w3.org/2000/svg" width="168" height="52" viewBox="0 0 168 52">
  <g id="Group_13" data-name="Group 13" transform="translate(-1736 -898)">
    <path id="Icon_akar-whatsapp-fill" data-name="Icon akar-whatsapp-fill" d="M23.733,19.6c-.406-.2-2.4-1.182-2.768-1.318s-.64-.2-.912.2-1.045,1.316-1.281,1.586-.473.3-.878.1a11.118,11.118,0,0,1-3.257-2.01,12.19,12.19,0,0,1-2.253-2.806c-.236-.4-.026-.624.177-.826.183-.181.4-.473.608-.709a2.746,2.746,0,0,0,.4-.677.738.738,0,0,0-.034-.709c-.1-.2-.91-2.2-1.248-3.008-.328-.789-.662-.681-.91-.7s-.507-.014-.777-.014a1.484,1.484,0,0,0-1.079.507,4.536,4.536,0,0,0-1.417,3.378A7.88,7.88,0,0,0,9.761,16.8c.2.27,2.855,4.361,6.917,6.115a23.139,23.139,0,0,0,2.309.852,5.529,5.529,0,0,0,2.551.161A4.174,4.174,0,0,0,24.272,22a3.4,3.4,0,0,0,.236-1.926c-.1-.169-.371-.27-.777-.473ZM16.344,29.688h-.005a13.453,13.453,0,0,1-6.86-1.879l-.488-.29-5.1,1.338,1.361-4.971-.32-.51a13.47,13.47,0,1,1,11.412,6.312ZM27.807,4.753A16.211,16.211,0,0,0,2.3,24.308L0,32.706l8.591-2.254a16.191,16.191,0,0,0,7.746,1.973h.007A16.214,16.214,0,0,0,27.807,4.753" transform="translate(1752 906.294)" fill="#2fd56d"/>
    <g id="Rectangle_20" data-name="Rectangle 20" transform="translate(1736 898)" fill="none" stroke="#2fd56d" stroke-width="1">
      <rect width="168" height="52" rx="11" stroke="none"/>
      <rect x="0.5" y="0.5" width="167" height="51" rx="10.5" fill="none"/>
    </g>
    <text id="WhatsApp_Us" data-name="WhatsApp Us" transform="translate(1799 930)" fill="#2fd56d" font-size="18" font-family="Abel-Regular, Abel"><tspan x="0" y="0">WhatsApp Us</tspan></text>
  </g>
</svg>
